<svg xmlns="http://www.w3.org/2000/svg" viewBox="0 0 1600 1000" role="img" aria-labelledby="title desc">
  <title id="title">Biblioteca com estantes de livros</title>
  <desc id="desc">Ilustracao colorida de uma sala de biblioteca com mesas, plantas e muitas estantes.</desc>
  <defs>
    <linearGradient id="wall" x1="0" x2="1" y1="0" y2="1">
      <stop offset="0" stop-color="#dcece6"/>
      <stop offset="0.55" stop-color="#c4d7d1"/>
      <stop offset="1" stop-color="#eef5ef"/>
    </linearGradient>
    <linearGradient id="floor" x1="0" x2="1">
      <stop offset="0" stop-color="#c96d50"/>
      <stop offset="0.48" stop-color="#e7b64e"/>
      <stop offset="1" stop-color="#2d6f8f"/>
    </linearGradient>
    <filter id="soft" x="-20%" y="-20%" width="140%" height="140%">
      <feDropShadow dx="0" dy="14" stdDeviation="18" flood-color="#10241f" flood-opacity="0.22"/>
    </filter>
  </defs>
  <rect width="1600" height="1000" fill="url(#wall)"/>
  <rect y="710" width="1600" height="290" fill="url(#floor)" opacity="0.82"/>
  <path d="M0 725 C280 650 460 790 740 705 C1030 615 1280 735 1600 650 L1600 1000 L0 1000 Z" fill="#153c32" opacity="0.22"/>
  <circle cx="1330" cy="160" r="96" fill="#f0b429" opacity="0.9"/>
  <circle cx="1330" cy="160" r="145" fill="#f0b429" opacity="0.22"/>
  <g filter="url(#soft)"><rect x="130" y="168" width="364" height="562" rx="8" fill="#0d5a43"/><rect x="153" y="202" width="318" height="94" fill="#e6f3ee"/><rect x="153" y="324" width="318" height="94" fill="#e6f3ee"/><rect x="153" y="446" width="318" height="94" fill="#e6f3ee"/><rect x="153" y="568" width="318" height="94" fill="#e6f3ee"/><rect x="130" y="690" width="364" height="40" fill="#093f30"/></g>
  <g><rect x="172" y="213" width="24" height="75" rx="4" fill="#b7342c"/><rect x="203" y="213" width="38" height="75" rx="4" fill="#2d6f8f"/><rect x="250" y="213" width="18" height="75" rx="4" fill="#f0b429"/><rect x="277" y="213" width="46" height="75" rx="4" fill="#0d5a43"/><rect x="332" y="213" width="26" height="75" rx="4" fill="#8a3f6b"/><rect x="367" y="213" width="72" height="75" rx="4" fill="#c96d50"/><rect x="172" y="335" width="45" height="75" rx="4" fill="#2d6f8f"/><rect x="226" y="335" width="22" height="75" rx="4" fill="#f0b429"/><rect x="257" y="335" width="66" height="75" rx="4" fill="#b7342c"/><rect x="333" y="335" width="30" height="75" rx="4" fill="#0d5a43"/><rect x="373" y="335" width="52" height="75" rx="4" fill="#8a3f6b"/><rect x="172" y="457" width="31" height="75" rx="4" fill="#f0b429"/><rect x="213" y="457" width="58" height="75" rx="4" fill="#0d5a43"/><rect x="281" y="457" width="27" height="75" rx="4" fill="#c96d50"/><rect x="318" y="457" width="79" height="75" rx="4" fill="#2d6f8f"/><rect x="406" y="457" width="33" height="75" rx="4" fill="#b7342c"/><rect x="172" y="579" width="53" height="75" rx="4" fill="#8a3f6b"/><rect x="235" y="579" width="20" height="75" rx="4" fill="#b7342c"/><rect x="265" y="579" width="70" height="75" rx="4" fill="#f0b429"/><rect x="345" y="579" width="28" height="75" rx="4" fill="#0d5a43"/><rect x="383" y="579" width="56" height="75" rx="4" fill="#2d6f8f"/></g>
  <g filter="url(#soft)"><rect x="575" y="118" width="450" height="612" rx="8" fill="#123f34"/><rect x="603" y="158" width="394" height="104" fill="#e6f3ee"/><rect x="603" y="292" width="394" height="104" fill="#e6f3ee"/><rect x="603" y="426" width="394" height="104" fill="#e6f3ee"/><rect x="603" y="560" width="394" height="104" fill="#e6f3ee"/><rect x="575" y="690" width="450" height="40" fill="#0a3028"/></g>
  <g><rect x="625" y="174" width="60" height="80" rx="4" fill="#b7342c"/><rect x="696" y="174" width="24" height="80" rx="4" fill="#f0b429"/><rect x="732" y="174" width="76" height="80" rx="4" fill="#2d6f8f"/><rect x="820" y="174" width="42" height="80" rx="4" fill="#0d5a43"/><rect x="874" y="174" width="86" height="80" rx="4" fill="#c96d50"/><rect x="625" y="308" width="82" height="80" rx="4" fill="#2d6f8f"/><rect x="719" y="308" width="32" height="80" rx="4" fill="#8a3f6b"/><rect x="763" y="308" width="55" height="80" rx="4" fill="#b7342c"/><rect x="830" y="308" width="28" height="80" rx="4" fill="#f0b429"/><rect x="870" y="308" width="90" height="80" rx="4" fill="#0d5a43"/><rect x="625" y="442" width="35" height="80" rx="4" fill="#f0b429"/><rect x="672" y="442" width="76" height="80" rx="4" fill="#0d5a43"/><rect x="760" y="442" width="45" height="80" rx="4" fill="#c96d50"/><rect x="817" y="442" width="67" height="80" rx="4" fill="#2d6f8f"/><rect x="896" y="442" width="64" height="80" rx="4" fill="#b7342c"/><rect x="625" y="576" width="68" height="80" rx="4" fill="#8a3f6b"/><rect x="705" y="576" width="39" height="80" rx="4" fill="#b7342c"/><rect x="756" y="576" width="70" height="80" rx="4" fill="#f0b429"/><rect x="838" y="576" width="38" height="80" rx="4" fill="#0d5a43"/><rect x="888" y="576" width="72" height="80" rx="4" fill="#2d6f8f"/></g>
  <g filter="url(#soft)"><rect x="1112" y="190" width="356" height="540" rx="8" fill="#0d5a43"/><rect x="1136" y="226" width="308" height="92" fill="#e6f3ee"/><rect x="1136" y="348" width="308" height="92" fill="#e6f3ee"/><rect x="1136" y="470" width="308" height="92" fill="#e6f3ee"/><rect x="1136" y="592" width="308" height="70" fill="#e6f3ee"/><rect x="1112" y="690" width="356" height="40" fill="#093f30"/></g>
  <g><rect x="1156" y="238" width="42" height="72" rx="4" fill="#2d6f8f"/><rect x="1208" y="238" width="26" height="72" rx="4" fill="#f0b429"/><rect x="1244" y="238" width="61" height="72" rx="4" fill="#b7342c"/><rect x="1315" y="238" width="30" height="72" rx="4" fill="#0d5a43"/><rect x="1355" y="238" width="66" height="72" rx="4" fill="#c96d50"/><rect x="1156" y="360" width="72" height="72" rx="4" fill="#b7342c"/><rect x="1238" y="360" width="38" height="72" rx="4" fill="#2d6f8f"/><rect x="1286" y="360" width="20" height="72" rx="4" fill="#f0b429"/><rect x="1316" y="360" width="86" height="72" rx="4" fill="#8a3f6b"/><rect x="1156" y="482" width="30" height="72" rx="4" fill="#f0b429"/><rect x="1196" y="482" width="58" height="72" rx="4" fill="#0d5a43"/><rect x="1264" y="482" width="74" height="72" rx="4" fill="#c96d50"/><rect x="1348" y="482" width="54" height="72" rx="4" fill="#2d6f8f"/><rect x="1156" y="604" width="74" height="50" rx="4" fill="#8a3f6b"/><rect x="1240" y="604" width="36" height="50" rx="4" fill="#b7342c"/><rect x="1286" y="604" width="68" height="50" rx="4" fill="#f0b429"/><rect x="1364" y="604" width="38" height="50" rx="4" fill="#0d5a43"/></g>
  <g filter="url(#soft)"><ellipse cx="800" cy="775" rx="310" ry="62" fill="#10241f" opacity="0.25"/><rect x="552" y="642" width="496" height="50" rx="8" fill="#b7342c"/><path d="M625 692 H975 L1038 820 H562 Z" fill="#f7f5eb"/><rect x="610" y="705" width="380" height="10" rx="5" fill="#d7ded6"/><rect x="685" y="746" width="230" height="12" rx="6" fill="#d7ded6"/><rect x="606" y="820" width="42" height="120" rx="8" fill="#123f34"/><rect x="952" y="820" width="42" height="120" rx="8" fill="#123f34"/></g>
  <g><rect x="1184" y="720" width="34" height="150" rx="17" fill="#0d5a43"/><ellipse cx="1200" cy="700" rx="70" ry="38" fill="#2f8b64"/><ellipse cx="1240" cy="650" rx="60" ry="34" fill="#3a9b71"/><ellipse cx="1160" cy="640" rx="58" ry="34" fill="#2d6f8f"/><rect x="1150" y="855" width="100" height="80" rx="8" fill="#b7342c"/></g>
</svg>
